<?xml version="1.0" ?><svg id="레이어_1" style="enable-background:new 0 0 40 40;" version="1.1" viewBox="0 0 40 40" xml:space="preserve" xmlns="http://www.w3.org/2000/svg" xmlns:xlink="http://www.w3.org/1999/xlink"><path d="M24.72,29.91h0.83c-0.87,2.38,0.35,5.02,2.73,5.89c2.38,0.87,5.02-0.35,5.89-2.73c0.18-0.5,0.28-1.02,0.28-1.55  c0-0.55-0.1-1.1-0.3-1.61h1.56c0.69,0,1.34-0.31,1.77-0.85c0.47-0.55,0.66-1.29,0.52-2l-2.7-13.94c-0.27-1.25-1.37-2.13-2.65-2.12  h-7V6.62c0-1.5-1.22-2.72-2.72-2.73H4.72C3.22,3.9,2,5.12,2,6.62v20.57c0,1.5,1.22,2.72,2.72,2.72h1C4.81,32.29,6,34.95,8.38,35.86  c2.38,0.91,5.04-0.28,5.95-2.66c0.41-1.06,0.41-2.24,0-3.3h8.57H24.72z M12.82,31.52c0.02,1.55-1.23,2.82-2.78,2.84  s-2.82-1.23-2.84-2.78c-0.01-0.6,0.18-1.19,0.53-1.67h4.56C12.63,30.38,12.82,30.94,12.82,31.52z M23.55,27.84  c-0.17,0.18-0.41,0.27-0.65,0.27H4.73c-0.51,0-0.92-0.41-0.92-0.92l0,0V6.62c0-0.23,0.1-0.45,0.26-0.62  c0.17-0.18,0.4-0.28,0.65-0.28h18.17c0.51,0.01,0.92,0.42,0.92,0.93v20.54C23.81,27.43,23.72,27.67,23.55,27.84z M32.65,31.52  c0,1.55-1.25,2.8-2.8,2.8c-1.55,0-2.8-1.25-2.8-2.8c0-0.58,0.18-1.14,0.52-1.61h4.56C32.47,30.38,32.65,30.94,32.65,31.52z   M36.07,27.93c-0.08,0.11-0.22,0.18-0.36,0.18H25.62V12.79h7c0.41,0.01,0.76,0.3,0.84,0.7l2.69,13.92l0,0  C36.21,27.59,36.18,27.78,36.07,27.93z"/><path d="M31.16,20.19H27.8c-0.5,0-0.9,0.4-0.9,0.9c0,0.5,0.4,0.9,0.9,0.9c0,0,0,0,0,0h3.36c0.5,0,0.9-0.4,0.9-0.9  C32.06,20.59,31.66,20.19,31.16,20.19z"/></svg>