<?xml version="1.0" encoding="utf-8"?>
<!-- Generator: Adobe Illustrator 19.2.0, SVG Export Plug-In . SVG Version: 6.00 Build 0)  -->
<svg version="1.1" id="pinpointup" xmlns="http://www.w3.org/2000/svg" xmlns:xlink="http://www.w3.org/1999/xlink" x="0px" y="0px"
	 viewBox="0 0 168 232" enable-background="new 0 0 168 232" xml:space="preserve">
<g>
	<polygon fill="none" points="66.4727,100 101.5271,100 84,64.9432 	"/>
	<path fill="none" d="M84,36c-26.4689,0-48,21.5332-48,48s21.5311,48,48,48c26.4687,0,48-21.5332,48-48S110.4687,36,84,36z
		 M111.4023,106.1036C110.672,107.2812,109.3867,108,108,108H60c-1.3869,0-2.672-0.7188-3.4025-1.8964
		c-0.7304-1.1796-0.7968-2.6524-0.1756-3.8928l24-48c1.3592-2.7108,5.7968-2.7108,7.156,0l24,48
		C112.1991,103.4512,112.1327,104.924,111.4023,106.1036z"/>
	<path fill="none" d="M84,8C42.0935,8,8,42.0936,8,84c0,33.6856,21.6251,62.9044,53.8123,72.7108
		c1.2268,0.3732,2.1992,1.3088,2.6172,2.5176L84,215.7716l19.5703-56.5432c0.418-1.2088,1.3904-2.1444,2.6172-2.5176
		C138.3751,146.9044,160,117.6856,160,84C160,42.0936,125.9063,8,84,8z M84,140c-30.8789,0-56-25.1212-56-56s25.1211-56,56-56
		c30.8787,0,56,25.1212,56,56S114.8787,140,84,140z"/>
	<path d="M84,28c-30.8789,0-56,25.1212-56,56s25.1211,56,56,56c30.8787,0,56-25.1212,56-56S114.8787,28,84,28z M84,132
		c-26.4689,0-48-21.5332-48-48s21.5311-48,48-48c26.4687,0,48,21.5332,48,48S110.4687,132,84,132z"/>
	<path d="M84,0C37.6835,0,0,37.6816,0,84c0,36.5428,23.0271,68.332,57.5235,79.742l22.6952,65.5664
		C80.7771,230.92,82.2967,232,84,232c1.7031,0,3.2227-1.08,3.7811-2.6916l22.6952-65.5664C144.9727,152.332,168,120.5428,168,84
		C168,37.6816,130.3163,0,84,0z M106.1875,156.7108c-1.2268,0.3732-2.1992,1.3088-2.6172,2.5176L84,215.7716l-19.5705-56.5432
		c-0.418-1.2088-1.3904-2.1444-2.6172-2.5176C29.6251,146.9044,8,117.6856,8,84C8,42.0936,42.0935,8,84,8
		c41.9063,0,76,34.0936,76,76C160,117.6856,138.3751,146.9044,106.1875,156.7108z"/>
	<path d="M87.5779,54.2108c-1.3592-2.7108-5.7968-2.7108-7.156,0l-24,48c-0.6212,1.2404-0.5548,2.7132,0.1756,3.8928
		C57.328,107.2812,58.6131,108,60,108h48c1.3867,0,2.672-0.7188,3.4023-1.8964c0.7304-1.1796,0.7968-2.6524,0.1756-3.8928
		L87.5779,54.2108z M66.4727,100L84,64.9432L101.5271,100H66.4727z"/>
</g>
</svg>
